<?xml version="1.0" encoding="UTF-8"?>
<svg width="40px" height="39px" viewBox="0 0 40 39" version="1.1" xmlns="http://www.w3.org/2000/svg" xmlns:xlink="http://www.w3.org/1999/xlink">
    <title>Classes icon</title>
    <g id="Trainez" stroke="none" stroke-width="1" fill="none" fill-rule="evenodd">
        <g id="Classes-icon">
            <rect id="Hover-bg" fill="#FFFFFF" opacity="0" x="0" y="0" width="39.0482622" height="39" rx="5"></rect>
            <g id="icon" transform="translate(7.008662, 8.000000)" stroke="#D8D8D8" stroke-linecap="round" stroke-linejoin="round">
                <path d="M4.49375341,22.7307692 L21.5384214,22.7307692 C23.2647683,22.7307692 24.6629125,21.3343531 24.6629125,19.6101399 L24.6629125,5.35314685 C24.6629125,3.63111888 23.2647683,2.23251748 21.5384214,2.23251748 L4.49375341,2.23251748 C2.76740642,2.23251748 1.36926229,3.63111888 1.36926229,5.35314685 L1.36926229,19.6101399 C1.36926229,21.3343531 2.76740642,22.7307692 4.49375341,22.7307692 Z" id="Stroke-1"></path>
                <path d="M5.13900021,9.64772727 L20.892737,9.64772727 C20.892737,9.64772727 20.0306575,16.0965909 16.516699,19.6826923 L0.762962223,19.6826923" id="Stroke-3"></path>
                <path d="M4.92326154,9.64772727 C4.92326154,9.64772727 4.05899403,16.0965909 0.54722355,19.6826923" id="Stroke-5"></path>
                <line x1="8.25758368" y1="6.3986014" x2="17.7754663" y2="6.3986014" id="Stroke-7"></line>
                <line x1="19.7221468" y1="0.546765734" x2="19.7221468" y2="2.23164336" id="Stroke-9"></line>
                <line x1="6.31002797" y1="0.546765734" x2="6.31002797" y2="2.23164336" id="Stroke-11"></line>
                <line x1="20.8931746" y1="9.64772727" x2="20.8931746" y2="22.5716783" id="Stroke-13"></line>
                <line x1="4.92326154" y1="19.6833479" x2="4.92326154" y2="22.5723339" id="Stroke-15"></line>
            </g>
        </g>
    </g>
</svg>