<?xml version="1.0" encoding="UTF-8"?>
<svg width="40px" height="39px" viewBox="0 0 40 39" version="1.1" xmlns="http://www.w3.org/2000/svg" xmlns:xlink="http://www.w3.org/1999/xlink">
    <title>Contacts icon</title>
    <g id="Trainez" stroke="none" stroke-width="1" fill="none" fill-rule="evenodd">
        <g id="Contacts-icon">
            <rect id="Hover-bg" fill="#FFFFFF" opacity="0" x="0" y="0" width="39.0482622" height="39" rx="5"></rect>
            <g id="icon" transform="translate(7.008662, 7.000000)" stroke="#D8D8D8" stroke-linecap="round" stroke-linejoin="round">
                <path d="M0.58850166,12.3827586 C0.58850166,18.8976489 5.87560058,24.1782132 12.398553,24.1782132 C18.9215054,24.1782132 24.2086043,18.8976489 24.2086043,12.3827586 C24.2086043,5.86786834 18.9215054,0.587304075 12.398553,0.587304075 C5.87560058,0.587304075 0.58850166,5.86786834 0.58850166,12.3827586 Z" id="Stroke-1"></path>
                <path d="M8.14603998,9.86755486 C8.14603998,12.2139498 10.0504314,14.1136364 12.397376,14.1136364 C14.7466746,14.1136364 16.651066,12.2139498 16.651066,9.86755486 C16.651066,7.52115987 14.7466746,5.61912226 12.397376,5.61912226 C10.0504314,5.61912226 8.14603998,7.52115987 8.14603998,9.86755486 Z" id="Stroke-3"></path>
                <path d="M21.6194324,19.750627 C20.1575943,16.6495298 16.5795042,14.4583072 12.3987884,14.4583072 C8.28633878,14.4583072 4.76003683,16.5766458 3.25347258,19.5954545" id="Stroke-5"></path>
            </g>
        </g>
    </g>
</svg>