<?xml version="1.0" encoding="UTF-8"?>
<svg width="40px" height="39px" viewBox="0 0 40 39" version="1.1" xmlns="http://www.w3.org/2000/svg" xmlns:xlink="http://www.w3.org/1999/xlink">
    <title>Setting icons</title>
    <g id="Trainez" stroke="none" stroke-width="1" fill="none" fill-rule="evenodd">
        <g id="Setting-icons">
            <rect id="Hover-bg" fill="#FFFFFF" opacity="0" x="0" y="0" width="39.0482622" height="39" rx="5"></rect>
            <g id="icon" transform="translate(5.006187, 5.000000)" stroke="#D8D8D8">
                <path d="M18.1875441,3.62414626 C18.5636066,3.3520984 19.0143365,3.25823474 19.4390628,3.32639868 C19.863789,3.39456262 20.2625116,3.62475416 20.5345594,4.00081669 C20.6887945,4.21402188 20.7908163,4.46046177 20.832412,4.72029767 L20.832412,4.72029767 L21.1636355,6.78935236 C21.2490233,7.32274421 21.5008963,7.79853858 21.8647785,8.16228051 C22.2286607,8.52602244 22.7045522,8.77771192 23.2379769,8.86289399 L23.2379769,8.86289399 L25.3140059,9.19441302 C25.7715418,9.26747647 26.156148,9.51907606 26.4081043,9.86679375 C26.6600606,10.2145114 26.7793672,10.6583472 26.7063037,11.1158831 C26.6647415,11.3761527 26.5624491,11.6229704 26.4077154,11.8363367 L26.4077154,11.8363367 L25.1777893,13.5323121 C24.8603433,13.9700461 24.7016203,14.4850231 24.7016203,15 C24.7016203,15.5149769 24.8603433,16.0299539 25.1777893,16.4676879 L25.1777893,16.4676879 L26.4077154,18.1636633 C26.6797266,18.5387463 26.7739541,18.9885745 26.7064081,19.4126348 C26.6388621,19.8366951 26.4095425,20.2349874 26.0344595,20.5069986 C25.8210933,20.6617324 25.5742756,20.7640248 25.3140059,20.805587 L25.3140059,20.805587 L23.2379769,21.137106 C22.7045522,21.2222881 22.2286607,21.4739776 21.8647785,21.8377195 C21.5008963,22.2014614 21.2490233,22.6772558 21.1636355,23.2106476 L21.1636355,23.2106476 L20.832412,25.2797023 C20.7590433,25.7380146 20.5068527,26.1231999 20.1584262,26.375465 C19.8099997,26.6277301 19.3653373,26.7470749 18.9070251,26.6737063 C18.6471892,26.6321106 18.4007493,26.5300888 18.1875441,26.3758537 L18.1875441,26.3758537 L16.4838711,25.1433976 C16.0466411,24.8271004 15.5326017,24.6689519 15.0185624,24.6689519 C14.504523,24.6689519 13.9904837,24.8271004 13.5532536,25.1433976 L13.5532536,25.1433976 L11.8495807,26.3758537 C11.4735181,26.6479016 11.0227882,26.7417653 10.598062,26.6736013 C10.1733357,26.6054374 9.77461316,26.3752458 9.50256529,25.9991833 C9.34833027,25.7859781 9.24630847,25.5395382 9.20471277,25.2797023 L9.20471277,25.2797023 L8.87348922,23.2106476 C8.78810146,22.6772558 8.53622848,22.2014614 8.17234626,21.8377195 C7.80846404,21.4739776 7.33257258,21.2222881 6.79914784,21.137106 L6.79914784,21.137106 L4.72311879,20.805587 C4.26558293,20.7325235 3.88097677,20.4809239 3.62902043,20.1332062 C3.37706409,19.7854886 3.25775758,19.3416528 3.33082103,18.8841169 C3.37238323,18.6238473 3.47467559,18.3770296 3.62940937,18.1636633 L3.62940937,18.1636633 L4.85933545,16.4676879 C5.17678141,16.0299539 5.33550439,15.5149769 5.33550439,15 C5.33550439,14.4850231 5.17678141,13.9700461 4.85933545,13.5323121 L4.85933545,13.5323121 L3.62940937,11.8363367 C3.35739816,11.4612537 3.26317064,11.0114255 3.33071666,10.5873652 C3.39826268,10.1633049 3.62758225,9.76501257 4.00266522,9.49300136 C4.21603145,9.33826758 4.46284917,9.23597522 4.72311879,9.19441302 L4.72311879,9.19441302 L6.79914784,8.86289399 C7.33257258,8.77771192 7.80846404,8.52602244 8.17234626,8.16228051 C8.53622848,7.79853858 8.78810146,7.32274421 8.87348922,6.78935236 L8.87348922,6.78935236 L9.20471277,4.72029767 C9.27808145,4.26198544 9.53027206,3.87680011 9.87869856,3.62453502 C10.2271251,3.37226992 10.6717874,3.25292506 11.1300997,3.32629374 C11.3899356,3.36788943 11.6363755,3.46991123 11.8495807,3.62414626 L11.8495807,3.62414626 L13.5532536,4.85660243 C13.9904837,5.17289956 14.504523,5.33104812 15.0185624,5.33104812 C15.5326017,5.33104812 16.0466411,5.17289956 16.4838711,4.85660243 L16.4838711,4.85660243 Z" id="Star"></path>
                <ellipse id="Oval" cx="15.0185624" cy="15" rx="4.32739505" ry="4.32142857"></ellipse>
            </g>
        </g>
    </g>
</svg>