<?xml version="1.0" encoding="UTF-8"?>
<svg width="40px" height="39px" viewBox="0 0 40 39" version="1.1" xmlns="http://www.w3.org/2000/svg" xmlns:xlink="http://www.w3.org/1999/xlink">
    <title>Contacts icon</title>
    <g id="Trainez" stroke="none" stroke-width="1" fill="none" fill-rule="evenodd">
        <g id="Contacts-icon">
            <rect id="Hover-bg" fill="#FFFFFF" opacity="0" x="0" y="0" width="39.0626326" height="39" rx="5"></rect>
            <g id="icon" transform="translate(7.011242, 7.000000)" stroke="#D8D8D8" stroke-linecap="round" stroke-linejoin="round">
                <path d="M0.588718239,12.3827586 C0.588718239,18.8976489 5.8777629,24.1782132 12.4031159,24.1782132 C18.9284688,24.1782132 24.2175135,18.8976489 24.2175135,12.3827586 C24.2175135,5.86786834 18.9284688,0.587304075 12.4031159,0.587304075 C5.8777629,0.587304075 0.588718239,5.86786834 0.588718239,12.3827586 Z" id="Stroke-1"></path>
                <path d="M8.14903787,9.86755486 C8.14903787,12.2139498 10.0541301,14.1136364 12.4019384,14.1136364 C14.7521016,14.1136364 16.6571939,12.2139498 16.6571939,9.86755486 C16.6571939,7.52115987 14.7521016,5.61912226 12.4019384,5.61912226 C10.0541301,5.61912226 8.14903787,7.52115987 8.14903787,9.86755486 Z" id="Stroke-3"></path>
                <path d="M21.6273887,19.750627 C20.1650126,16.6495298 16.5856057,14.4583072 12.4033514,14.4583072 C8.2893883,14.4583072 4.76178861,16.5766458 3.25466991,19.5954545" id="Stroke-5"></path>
            </g>
        </g>
    </g>
</svg>