<?xml version="1.0" encoding="UTF-8"?>
<svg width="40px" height="39px" viewBox="0 0 40 39" version="1.1" xmlns="http://www.w3.org/2000/svg" xmlns:xlink="http://www.w3.org/1999/xlink">
    <title>Setting icons</title>
    <g id="Trainez" stroke="none" stroke-width="1" fill="none" fill-rule="evenodd">
        <g id="Setting-icons">
            <rect id="Hover-bg" fill="#FFFFFF" opacity="0" x="0" y="0" width="39.0626326" height="39" rx="5"></rect>
            <g id="icon" transform="translate(5.008030, 5.000000)" stroke="#D8D8D8">
                <path d="M18.1947262,3.62371481 C18.5709677,3.35163763 19.0218715,3.25781996 19.4467342,3.32608195 C19.8715969,3.39434395 20.2704186,3.62468561 20.5424958,4.00092708 C20.6966701,4.21412682 20.7986606,4.46053199 20.8402649,4.72032603 L20.8402649,4.72032603 L21.1716125,6.7893941 C21.2570309,7.32278098 21.5089311,7.79856084 21.8728342,8.16228185 C22.2367372,8.52600286 22.712643,8.77766502 23.2460726,8.86281652 L23.2460726,8.86281652 L25.3241915,9.1945472 C25.7816523,9.26757179 26.1662063,9.51910577 26.4181389,9.86674881 C26.6700715,10.2143918 26.7893828,10.6581439 26.7163582,11.1156047 C26.6747974,11.3759616 26.5724558,11.6228571 26.4176342,11.8362659 L26.4176342,11.8362659 L25.1874609,13.5319582 C24.8698438,13.9697671 24.7110352,14.4848835 24.7110352,15 C24.7110352,15.5151165 24.8698438,16.0302329 25.1874609,16.4680418 L25.1874609,16.4680418 L26.4176342,18.1637341 C26.6896639,18.5387045 26.7839537,18.9884384 26.7164935,19.412437 C26.6490334,19.8364356 26.4198232,20.2346991 26.0448527,20.5067288 C25.831444,20.6615503 25.5845485,20.763892 25.3241915,20.8054528 L25.3241915,20.8054528 L23.2460726,21.1371835 C22.712643,21.222335 22.2367372,21.4739971 21.8728342,21.8377182 C21.5089311,22.2014392 21.2570309,22.677219 21.1716125,23.2106059 L21.1716125,23.2106059 L20.8402649,25.279674 C20.7668443,25.7381421 20.5145434,26.1234475 20.1659807,26.3757808 C19.8174179,26.628114 19.3725933,26.747475 18.9141252,26.6740543 C18.6543311,26.63245 18.4079259,26.5304595 18.1947262,26.3762852 L18.1947262,26.3762852 L16.4890443,25.1428296 C16.0518893,24.8267032 15.5379894,24.6686399 15.0240895,24.6686399 C14.5101895,24.6686399 13.9962896,24.8267032 13.5591347,25.1428296 L13.5591347,25.1428296 L11.8534527,26.3762852 C11.4772113,26.6483624 11.0263075,26.74218 10.6014447,26.673918 C10.176582,26.6056561 9.77776037,26.3753144 9.50568318,25.9990729 C9.35150883,25.7858732 9.24951833,25.539468 9.20791403,25.279674 L9.20791403,25.279674 L8.87656644,23.2106059 C8.79114805,22.677219 8.5392478,22.2014392 8.17534476,21.8377182 C7.81144172,21.4739971 7.33553589,21.222335 6.80210634,21.1371835 L6.80210634,21.1371835 L4.72398739,20.8054528 C4.26652659,20.7324282 3.88197263,20.4808942 3.63004002,20.1332512 C3.37810741,19.7856082 3.25879614,19.3418561 3.33182073,18.8843953 C3.37338157,18.6240384 3.47572317,18.3771429 3.63054476,18.1637341 L3.63054476,18.1637341 L4.86071808,16.4680418 C5.17833517,16.0302329 5.33714371,15.5151165 5.33714371,15 C5.33714371,14.4848835 5.17833517,13.9697671 4.86071808,13.5319582 L4.86071808,13.5319582 L3.63054476,11.8362659 C3.35851508,11.4612955 3.26422523,11.0115616 3.3316854,10.587563 C3.39914558,10.1635644 3.62835578,9.76530091 4.00332622,9.49327123 C4.21673498,9.33844965 4.46363048,9.23610805 4.72398739,9.1945472 L4.72398739,9.1945472 L6.80210634,8.86281652 C7.33553589,8.77766502 7.81144172,8.52600286 8.17534476,8.16228185 C8.5392478,7.79856084 8.79114805,7.32278098 8.87656644,6.7893941 L8.87656644,6.7893941 L9.20791403,4.72032603 C9.28133468,4.26185788 9.53363554,3.87655246 9.88219828,3.62421924 C10.230761,3.37188603 10.6755856,3.25252501 11.1340538,3.32594566 C11.3938478,3.36754996 11.640253,3.46954046 11.8534527,3.62371481 L11.8534527,3.62371481 L13.5591347,4.85717036 C13.9962896,5.17329682 14.5101895,5.33136006 15.0240895,5.33136006 C15.5379894,5.33136006 16.0518893,5.17329682 16.4890443,4.85717036 L16.4890443,4.85717036 Z" id="Star"></path>
                <ellipse id="Oval" cx="15.0240895" cy="15" rx="4.32917161" ry="4.32142857"></ellipse>
            </g>
        </g>
    </g>
</svg>