<?xml version="1.0" encoding="UTF-8"?>
<svg width="40px" height="39px" viewBox="0 0 40 39" version="1.1" xmlns="http://www.w3.org/2000/svg" xmlns:xlink="http://www.w3.org/1999/xlink">
    <title>Dashboard icon </title>
    <g id="Trainez" stroke="none" stroke-width="1" fill="none" fill-rule="evenodd">
        <g id="Dashboard-icon-">
            <rect id="Hover-bg" fill="#FFFFFF" opacity="0" x="0" y="0" width="39.0482622" height="39" rx="5"></rect>
            <g id="icon" transform="translate(7.008662, 7.000000)" stroke="#D8D8D8" stroke-linecap="round" stroke-linejoin="round">
                <path d="M16.5588752,24.4551724 L22.5185138,24.4551724 C23.7723362,24.4551724 24.7917781,23.4018809 24.7917781,22.1040752 L24.7917781,16.5249216 C24.7917781,15.227116 23.7723362,14.1761755 22.5185138,14.1761755 L16.5588752,14.1761755 C15.3027773,14.1761755 14.285611,15.227116 14.285611,16.5249216 L14.285611,22.1040752 C14.285611,23.4018809 15.3027773,24.4551724 16.5588752,24.4551724 Z" id="Stroke-4"></path>
                <path d="M2.84237671,24.4241379 L8.80201532,24.4241379 C10.0558377,24.4241379 11.0752795,23.3731975 11.0752795,22.0753918 L11.0752795,16.4938871 C11.0752795,15.1984326 10.0558377,14.1451411 8.80201532,14.1451411 L2.84237671,14.1451411 C1.58627876,14.1451411 0.569112492,15.1984326 0.569112492,16.4938871 L0.569112492,22.0753918 C0.569112492,23.3731975 1.58627876,24.4241379 2.84237671,24.4241379 Z" id="Stroke-3"></path>
                <path d="M16.5588752,10.8663009 L22.5185138,10.8663009 C23.7723362,10.8663009 24.7917781,9.8153605 24.7917781,8.51755486 L24.7917781,2.93605016 C24.7917781,1.64059561 23.7723362,0.587304075 22.5185138,0.587304075 L16.5588752,0.587304075 C15.3027773,0.587304075 14.285611,1.64059561 14.285611,2.93605016 L14.285611,8.51755486 C14.285611,9.8153605 15.3027773,10.8663009 16.5588752,10.8663009 Z" id="Stroke-2"></path>
                <path d="M2.84237671,10.8663009 L8.80201532,10.8663009 C10.0558377,10.8663009 11.0752795,9.8153605 11.0752795,8.51755486 L11.0752795,2.93605016 C11.0752795,1.64059561 10.0558377,0.587304075 8.80201532,0.587304075 L2.84237671,0.587304075 C1.58627876,0.587304075 0.569112492,1.64059561 0.569112492,2.93605016 L0.569112492,8.51755486 C0.569112492,9.8153605 1.58627876,10.8663009 2.84237671,10.8663009 Z" id="Stroke-1"></path>
            </g>
        </g>
    </g>
</svg>