<?xml version="1.0" encoding="UTF-8"?>
<svg width="40px" height="39px" viewBox="0 0 40 39" version="1.1" xmlns="http://www.w3.org/2000/svg" xmlns:xlink="http://www.w3.org/1999/xlink">
    <title>Dashboard icon </title>
    <g id="Trainez" stroke="none" stroke-width="1" fill="none" fill-rule="evenodd">
        <g id="Dashboard-icon-">
            <rect id="Hover-bg" fill="#FFFFFF" opacity="0" x="0" y="0" width="39.0626326" height="39" rx="5"></rect>
            <g id="icon" transform="translate(7.011242, 7.000000)" stroke="#D8D8D8" stroke-linecap="round" stroke-linejoin="round">
                <path d="M16.5649692,24.4551724 L22.5268011,24.4551724 C23.7810849,24.4551724 24.8009019,23.4018809 24.8009019,22.1040752 L24.8009019,16.5249216 C24.8009019,15.227116 23.7810849,14.1761755 22.5268011,14.1761755 L16.5649692,14.1761755 C15.308409,14.1761755 14.2908684,15.227116 14.2908684,16.5249216 L14.2908684,22.1040752 C14.2908684,23.4018809 15.308409,24.4551724 16.5649692,24.4551724 Z" id="Stroke-4"></path>
                <path d="M2.84342275,24.4241379 L8.80525462,24.4241379 C10.0595384,24.4241379 11.0793554,23.3731975 11.0793554,22.0753918 L11.0793554,16.4938871 C11.0793554,15.1984326 10.0595384,14.1451411 8.80525462,14.1451411 L2.84342275,14.1451411 C1.58686254,14.1451411 0.569321936,15.1984326 0.569321936,16.4938871 L0.569321936,22.0753918 C0.569321936,23.3731975 1.58686254,24.4241379 2.84342275,24.4241379 Z" id="Stroke-3"></path>
                <path d="M16.5649692,10.8663009 L22.5268011,10.8663009 C23.7810849,10.8663009 24.8009019,9.8153605 24.8009019,8.51755486 L24.8009019,2.93605016 C24.8009019,1.64059561 23.7810849,0.587304075 22.5268011,0.587304075 L16.5649692,0.587304075 C15.308409,0.587304075 14.2908684,1.64059561 14.2908684,2.93605016 L14.2908684,8.51755486 C14.2908684,9.8153605 15.308409,10.8663009 16.5649692,10.8663009 Z" id="Stroke-2"></path>
                <path d="M2.84342275,10.8663009 L8.80525462,10.8663009 C10.0595384,10.8663009 11.0793554,9.8153605 11.0793554,8.51755486 L11.0793554,2.93605016 C11.0793554,1.64059561 10.0595384,0.587304075 8.80525462,0.587304075 L2.84342275,0.587304075 C1.58686254,0.587304075 0.569321936,1.64059561 0.569321936,2.93605016 L0.569321936,8.51755486 C0.569321936,9.8153605 1.58686254,10.8663009 2.84342275,10.8663009 Z" id="Stroke-1"></path>
            </g>
        </g>
    </g>
</svg>