<?xml version="1.0" encoding="UTF-8"?>
<svg width="40px" height="39px" viewBox="0 0 40 39" version="1.1" xmlns="http://www.w3.org/2000/svg" xmlns:xlink="http://www.w3.org/1999/xlink">
    <title>Classes icon</title>
    <g id="Trainez" stroke="none" stroke-width="1" fill="none" fill-rule="evenodd">
        <g id="Classes-icon">
            <rect id="Hover-bg" fill="#FFFFFF" opacity="0" x="0" y="0" width="39.0626326" height="39" rx="5"></rect>
            <g id="icon" transform="translate(7.011242, 8.000000)" stroke="#D8D8D8" stroke-linecap="round" stroke-linejoin="round">
                <path d="M4.49540719,22.7307692 L21.5463479,22.7307692 C23.2733302,22.7307692 24.6719889,21.3343531 24.6719889,19.6101399 L24.6719889,5.35314685 C24.6719889,3.63111888 23.2733302,2.23251748 21.5463479,2.23251748 L4.49540719,2.23251748 C2.76842488,2.23251748 1.3697662,3.63111888 1.3697662,5.35314685 L1.3697662,19.6101399 C1.3697662,21.3343531 2.76842488,22.7307692 4.49540719,22.7307692 Z" id="Stroke-1"></path>
                <path d="M5.14089145,9.64772727 L20.9004259,9.64772727 C20.9004259,9.64772727 20.0380291,16.0965909 16.5227774,19.6826923 L0.763243007,19.6826923" id="Stroke-3"></path>
                <path d="M4.92507338,9.64772727 C4.92507338,9.64772727 4.06048782,16.0965909 0.547424938,19.6826923" id="Stroke-5"></path>
                <line x1="8.26062262" y1="6.3986014" x2="17.782008" y2="6.3986014" id="Stroke-7"></line>
                <line x1="19.7294049" y1="0.546765734" x2="19.7294049" y2="2.23164336" id="Stroke-9"></line>
                <line x1="6.31235018" y1="0.546765734" x2="6.31235018" y2="2.23164336" id="Stroke-11"></line>
                <line x1="20.9008636" y1="9.64772727" x2="20.9008636" y2="22.5716783" id="Stroke-13"></line>
                <line x1="4.92507338" y1="19.6833479" x2="4.92507338" y2="22.5723339" id="Stroke-15"></line>
            </g>
        </g>
    </g>
</svg>